<svg width="787" height="917" fill="none" xmlns="http://www.w3.org/2000/svg"><g opacity=".3"><path d="m193.191 300.695 6.043-4.824-1.208 4.824c-21.758 43.419-9.67 112.165 16.922 151.966 12.088 18.091 14.505 27.739 38.68 15.679 1.209 0 1.209-1.207 1.209 1.206-1.209 3.618-2.418 6.03-2.418 9.648-1.208 21.71-9.67 34.976-2.417 61.51 4.835 19.297 26.592 34.976 48.35 37.388l7.252 2.413h-9.67c-35.053 0-60.437-24.122-68.898-49.449-19.34-60.304-14.505-37.389-29.01-68.747-20.549-42.213-39.889-124.226-4.835-161.614Z" fill="url(#a)"/><path d="M330.988 721.616c-16.923 2.412-15.714-12.061-25.384-22.916-13.296-16.885-13.296-42.213 12.088-42.213-6.044 13.267-9.67 21.71 0 34.977 10.878 13.267 7.252 19.297 13.296 30.152Z" fill="url(#b)"/><path d="M479.664 698.7c-9.67 10.855-8.462 24.122-25.384 22.916 6.044-9.649 2.417-15.679 13.296-30.152 9.67-13.267 6.044-20.504 0-34.977 24.175 0 24.175 25.328 12.088 42.213Z" fill="url(#c)"/><path d="M463.95 839.811c3.626 2.412 8.461 8.443 9.67 12.061-22.966 24.121-50.767 47.037-78.569 65.128-25.383-16.885-56.811-37.388-73.733-59.098-3.626-3.618-6.044-6.03-3.626-9.648 10.878-15.679 13.296-16.885 24.175-33.771 4.835-4.824 4.835-9.648 10.878-18.091 10.879 9.649 22.966 16.885 32.636 28.946 2.418 3.618 4.835 8.443 8.462 10.855 14.505-18.091 24.175-26.534 43.515-41.007 9.669 8.443 2.417 14.473-3.627 22.916l-20.548 25.327c3.626-1.206 2.417 0 4.835-2.412 10.878-7.236 22.966-15.679 31.427-24.121l1.209 1.206c0 3.618 9.67 4.824 2.417 15.679-8.461 12.061-19.34 24.121-29.01 34.976l-12.087 14.473c15.714-10.855 49.558-41.007 51.976-43.419Z" fill="url(#d)"/><path d="m129.127 621.511-67.69 65.128c-8.46-8.442-19.34-51.861-20.548-65.128-7.253-34.976-6.044-77.189 10.878-110.959 4.835-9.648 13.297-9.648 33.845-15.679 55.603-19.297 48.35-21.709 70.108-39.8-3.627 19.297-4.835 48.243-14.505 66.334-2.418 6.03-6.044 12.061-8.462 16.885 14.505-10.855 33.845-51.861 38.68-66.334 1.209-6.031 2.418-8.443 2.418-9.649 0-1.206 4.835 8.443 6.044 12.061 4.835 15.679-3.627 30.152-9.671 45.831-4.835 10.854-10.878 20.503-16.922 31.358l-20.549 28.946 19.34-19.298c14.505-16.885 21.758-27.739 31.428-47.037 2.417-4.824 3.626-12.06 6.043-14.472 14.505 16.885 7.253 33.77-1.208 50.655-13.297 25.327-36.263 50.655-59.229 71.158Z" fill="url(#e)"/><path d="M339.449 784.332c-4.835 16.885-15.714 32.564-26.592 47.037-20.549 27.739-14.505 16.885-25.384 45.831-18.131-7.237-48.35-33.771-59.229-44.625-10.878-10.855-20.548-26.534-26.592-39.801-6.044-13.267-3.626-10.855 3.626-21.709 10.879-14.473 15.714-25.328 21.758-43.419 8.461 4.824 18.131 12.061 29.01 15.679 3.626-13.267 12.087-21.709 18.131-32.564 0 1.206 0 0 1.209 2.412 0 1.206 1.208 1.206 1.208 2.412 12.088 21.71 14.505 16.885 10.879 41.007-2.417 18.091-9.67 33.77-13.296 49.449 8.461-8.443 22.966-39.801 27.801-53.067 7.252 6.03 4.835 4.824 10.879 8.442-1.209 14.473-13.297 45.831-20.549 60.304-2.418 4.824-8.461 14.473-9.67 19.297l1.209-1.206c15.713-15.679 38.68-62.716 41.097-65.128 6.044 2.412 9.67 6.03 14.505 9.649Z" fill="url(#f)"/><path d="M426.479 711.967c3.626 7.236 3.626 4.824 2.417 10.855-2.417 10.854-4.835 19.297-12.087 27.739-2.418 3.619-7.253 9.649-8.461 13.267l4.835-3.618c1.208-2.412 2.417-2.412 3.626-4.824 9.67-12.061 16.922-27.74 18.131-28.946 2.418 1.206 4.835 4.824 6.044 6.03 2.417 3.619 2.417 3.619 0 7.237-8.461 15.679-15.714 30.152-31.428 41.006 3.627-1.206 8.462-6.03 12.088-8.442 15.714-10.855 25.383-27.74 27.801-30.152 6.044 6.03 6.044 4.824 4.835 9.649-6.044 16.885-41.097 43.418-61.646 54.273-6.044-2.412-38.68-26.534-43.515-30.152-4.835-4.824-20.549-21.709-18.131-27.74l12.087-12.06c3.627-3.619 7.253-7.237 10.879-12.061 6.044-7.237 7.253-13.267 9.67-14.473 1.209 1.206 6.044 4.824 7.252 6.03 7.253 3.618 20.549 14.473 21.758 16.885l1.209 1.206 6.043-7.236c7.253-7.237 16.923-10.855 24.175-16.885l2.418 2.412Z" fill="url(#g)"/><path d="m162.972 802.423-9.67-8.443c-31.427-30.152-51.976-67.54-55.602-108.547-1.209-16.885-1.209-16.885 9.67-26.533l39.888-34.977c3.627 4.825 6.044 16.885 8.462 22.916 9.67 22.915 12.087 19.297 8.461 51.861-1.209 8.443-3.627 18.091-4.835 25.328 8.461-13.267 12.087-24.122 18.131-38.595 8.461 8.443 6.044 7.237 4.835 18.091-3.626 34.977-13.296 50.656-14.505 61.51 1.209-3.618 12.087-19.297 15.714-26.533 3.626-6.031 9.67-26.534 13.296-30.152 6.044 3.618 4.835 7.236 12.087 9.648-4.834 34.977-29.009 55.48-45.932 84.426Z" fill="url(#h)"/><path d="M300.769 359.793c1.209-24.122-2.417-24.122 3.626-38.595 4.835-10.855 7.253-19.297 19.34-21.709 1.209 8.442-1.208 15.679-6.043 21.709-10.879 18.091-13.297 15.679-10.879 38.595 1.209 3.618 1.209 8.442 2.417 12.06 1.209 4.825 2.418 4.825 3.627 9.649-2.418 0-4.835-1.206-7.253-1.206 1.209 3.618 0-1.206 2.418 3.618 1.208 2.412 1.208 3.618 1.208 6.031 0 4.824-1.208 7.236-1.208 10.854 1.208 1.206 2.417 1.206 3.626 2.412 12.087 7.237-14.505 56.686-16.923 60.304-2.417-19.297 8.462-20.503 8.462-43.419 0-8.442 0-8.442-8.462-8.442 1.209-4.824 6.044-13.267-1.208-18.091-9.67-6.031-21.758 8.442-54.394-18.091-2.417 1.206-3.626 1.206-6.044 2.412l-20.548 2.412h-2.418c2.418-3.618 14.505-7.237 21.758-12.061 12.087-7.236 12.087-22.915 44.723-16.885 19.34 3.618 18.131 8.443 24.175 8.443Z" fill="url(#i)"/><path d="m474.829 581.711 7.252-2.412c22.966-3.619 43.515-18.092 49.559-36.183 7.252-26.533-1.209-39.8-2.418-61.51-1.208-3.618-1.209-6.03-2.417-9.648-1.209-2.412 0-2.412 1.208-1.206 22.967 12.06 26.593 2.412 38.68-15.679 27.802-39.801 38.68-108.547 16.923-151.966l-2.418-6.03 6.044 4.824c35.054 38.594 14.505 119.402-4.835 161.614-14.505 31.358-10.878 9.649-29.01 68.747-7.252 25.327-32.636 49.449-68.898 49.449h-9.67Z" fill="url(#j)"/><path d="M621.087 643.221c-9.67 25.327-51.976 78.395-79.777 88.043-73.734-78.395-2.418-85.631 18.131-164.026 7.252-21.71 12.087-49.449 16.922-53.068 3.627 28.946 10.879 12.061 8.462 66.335-1.209 42.212-13.297 50.655-15.714 71.158 12.087-16.885 26.592-56.685 29.01-79.601 2.417 0 7.252 7.237 8.461 9.649 2.418 6.03-8.461 47.037-10.879 54.273-7.252 24.122-13.296 33.77-25.383 54.274 15.713-13.267 31.427-43.419 37.471-59.098 2.417-7.237 4.835-16.885 8.461-24.122 15.714 9.649 9.67 21.71 4.835 36.183Z" fill="url(#k)"/><path d="M638.01 629.954c7.252 2.412 20.548 15.679 21.757 21.709 6.044 37.389 0 67.54-9.67 101.311 8.461-16.885 12.087-16.885 18.131-41.007 4.835-16.885 6.044-33.77 7.253-50.655 18.131 10.855 15.713 18.091 13.296 39.8-7.253 60.304-56.811 95.28-61.646 106.135-4.835-2.412-25.384-33.77-30.219-39.8-8.461-13.267-15.714-27.74-18.131-44.625 21.757-6.031 59.229-74.777 59.229-92.868Z" fill="url(#l)"/><path d="M89.239 268.131c-2.418 2.412-4.835 6.03-7.253 8.442-3.626 2.412-6.044 3.619-8.461 8.443l29.01-8.443c0 8.443-12.088 27.74-20.549 36.183-1.209 1.206-2.418 1.206-2.418 2.412-1.208 1.206 0 1.206-1.208 2.412 12.087-7.237 19.34-16.885 26.592-25.328 1.209-1.206 4.835-6.03 6.044-8.442 2.417 6.03-8.461 31.358-16.922 41.006-18.132 13.267-31.428 24.122-47.142 39.801-8.46 8.442-21.757 24.121-24.175 34.976 0 1.206 0 2.412-1.208 3.618-16.923-28.945-16.923-83.219 1.209-109.753 4.834-6.03 14.504-16.885 21.757-22.915 18.131-13.267 30.219-16.885 44.724-16.885 2.417 0 6.043 2.412 7.252 4.824-2.418 3.618-6.044 7.237-7.252 9.649Z" fill="url(#m)"/><path d="M541.311 204.21c6.043 4.824 12.087 9.648 18.13 15.678 30.219 32.564 54.394 50.655 55.602 50.655-37.471-38.595-38.68-60.304-88.238-80.807 25.383 2.412 64.063 4.824 94.282 65.128 12.087 22.915 22.966 42.213 45.932 50.655l3.627 2.412-6.044 1.206c-58.02 4.825-76.151-14.473-100.326-41.006-9.67-10.855-24.175-24.122-36.263-31.358-19.339-10.855-49.558-13.267-72.524-8.443 10.878-33.77 50.767-47.037 85.821-24.121l.001.001Z" fill="url(#n)"/><path d="M150.885 423.715c0 9.648-1.209 12.06-6.044 20.503-27.801 39.801-88.239 34.976-132.962 66.334-9.67-49.449 8.46-100.104 37.47-136.286 7.253-8.443 21.758-22.916 32.637-28.946 13.296-8.443 9.67-9.649 31.427-10.855 15.714-1.206 27.802-2.412 42.307-4.824-3.627 7.236-14.505 19.297-19.34 25.327-3.627 4.825-7.253 8.443-10.879 12.061-4.835 4.824-8.461 6.03-12.088 10.855l36.263-2.412c-2.418 13.266-24.175 41.006-36.263 50.655l-3.626 3.618c-12.087 12.061 33.845-26.534 36.263-28.946 2.417-2.412 8.461-9.648 9.67-12.061 0 10.855-20.549 47.037-33.845 59.098l-16.923 14.473c42.306-26.534 35.054-30.152 45.933-38.594Z" fill="url(#o)"/><path d="M728.665 368.235c36.263 38.595 53.185 91.662 43.515 141.111-3.626-1.206-6.043-3.618-10.878-9.648-29.01-16.886-65.273-19.298-100.326-36.183-14.505-7.236-33.845-24.121-36.263-37.388-1.209-9.649 8.461-42.213 4.835-55.48 18.132 2.412 18.131 2.412 36.263 3.619-1.209-2.413-3.627-3.619-6.044-6.031-10.879-7.236-8.461-4.824-18.131-15.679-4.835-4.824-18.131-19.297-20.549-25.327 6.044 1.206 10.879 1.206 16.923 2.412 9.67 1.206 42.306 22.915 50.767 30.152 4.835 4.824 10.879 9.648 15.714 14.473 4.835 4.824 9.67 10.854 14.504 16.885 13.297 19.297 24.175 37.388 30.219 59.097-1.209-27.739-29.01-73.57-53.185-94.074-6.043-4.824-8.461-8.442-14.505-12.06l-14.505-10.855c0-.757-.476-1.039-.83-1.144l-.378-.062s.167 0 .378.062c14.149 2.309 15.473.033 31.049 10.793 14.505 9.648 19.34 13.266 31.427 25.327Z" fill="url(#p)"/><path d="M471.202 362.205c2.418-22.916 0-19.297-10.878-38.595-3.627-6.03-7.253-13.267-7.253-20.503 13.296 1.206 15.714 9.649 20.549 20.503 7.252 14.473 2.417 13.267 3.626 38.595 6.044 0 4.835-4.825 24.175-8.443 32.636-7.236 33.845 9.649 44.724 16.885 7.252 4.825 19.34 8.443 21.757 12.061h-2.417l-20.549-2.412c-2.418-1.206-3.626-1.206-6.044-2.412-32.636 26.533-44.723 12.061-54.393 18.091-7.253 3.618-2.418 12.061-1.209 18.091-8.461 0-8.461 0-8.461 8.443 0 24.121 10.878 25.327 8.461 43.418-2.418-3.618-29.01-53.067-16.923-60.303 1.209-1.207 2.418-1.207 3.627-2.413 0-3.618-1.209-7.236-1.209-10.854 0-2.412 0-3.619 1.209-6.031 2.417-4.824 1.208 0 2.417-3.618-2.417-1.206-4.835 0-7.252 1.206 0-4.824 2.417-4.824 3.626-9.648 1.209-3.619 1.209-7.237 2.417-12.061Z" fill="url(#q)"/><path d="M433.731 211.445c-48.349 8.443-37.471 71.159-44.723 89.25-10.879-22.916 6.043-78.395-44.724-86.838 22.966-8.442 27.801-10.854 45.932-20.503 18.132 8.443 18.132 13.267 43.515 18.091Z" fill="url(#r)"/><path d="M740.753 638.396c-3.626 10.855-12.088 38.595-18.131 45.831-3.626-2.412-8.461-9.648-9.67-10.854l-47.141-43.419c-8.462-7.237-37.471-37.389-44.724-45.831-14.505-16.885-21.757-37.388-27.801-61.51-2.418-7.236-2.418-10.855-2.418-14.473 3.627-4.824 6.044-9.649 8.462-15.679 4.835-12.061 10.878-25.328 14.505-41.007 12.087 8.443 16.922 13.267 36.262 25.328 3.626 2.412 4.835 3.618 18.131 22.916 7.253 10.854 14.505 21.709 19.34 34.976 4.835 12.06 12.088 41.006 12.088 42.212 0-26.533-6.044-47.037-15.714-71.158l-7.253-14.473c-2.417-4.824-1.208-1.206-2.417-6.03 21.757 7.236 15.714 1.206 25.384 20.503 6.043 9.649 10.878 20.503 14.505 31.358 12.087 32.564 9.67 37.388 14.504 66.334l1.209 4.824c2.418-36.182-3.626-82.013-18.131-113.371 21.757 4.825 22.966 10.855 30.219 34.976 9.67 34.977 7.252 73.571-1.209 108.547Z" fill="url(#s)"/><path d="M160.555 254.864c30.218-60.304 68.898-62.716 94.282-65.128-48.35 19.297-50.768 42.212-87.03 80.807 0 0 22.966-16.885 54.394-50.655 6.043-7.237 12.087-12.061 18.131-15.679 36.262-22.916 74.942-9.649 85.821 24.121-22.966-6.03-53.185-2.412-72.525 8.443-12.087 6.03-26.592 20.503-36.262 31.358-24.175 25.327-42.306 45.831-100.326 41.006l-6.044-1.206 3.626-2.412c22.966-8.442 33.845-27.74 45.933-50.655Z" fill="url(#t)"/><path d="M217.366 709.555c-24.175-20.503-44.724-51.861-54.394-80.807-4.835-15.679-6.044-14.473-3.626-21.71 16.922-16.885 32.636-39.8 39.888-60.304 1.209-2.412 2.418-4.824 2.418-7.236l6.044-14.473c2.417 2.412 8.461 15.679 14.505 31.358 0 1.206 1.208 3.618 2.417 6.03 1.209 2.413-16.922 39.801-15.714 41.007 1.209 1.206 19.34-32.564 20.549-30.152 2.418 6.031 4.835 12.061 7.253 16.885 6.043 13.267 9.67 22.916 9.67 24.122-7.253 16.885-14.505 27.74-16.923 36.182 3.626-2.412 2.418-1.206 6.044-7.236l13.296-20.504c3.626 10.855 6.044 21.71 12.088 30.152-4.835 13.267-4.835 16.885-15.714 31.358 7.252-3.618 19.34-18.091 22.966-24.121 25.384 25.327 3.626 25.327-16.922 60.304l-6.044 8.442c-10.879-7.236-18.131-10.855-27.801-19.297Z" fill="url(#u)"/><path d="M456.698 86.013s-4.836 30.152-26.593 50.655c-12.087 12.061-14.505 31.358-15.714 47.037-4.835-10.854-9.67-16.885-4.835-37.388 7.253-30.152 30.219-63.922 30.219-90.456 0-25.327-14.505-27.74-21.757-38.594 22.966 1.206 49.558 13.267 58.019 24.121 27.802 33.77-2.417 73.571-26.592 102.517-26.592 31.358-24.175 36.182-25.384 42.213-1.208-7.237-2.417-15.679 0-27.74 4.835-21.71 21.758-26.534 27.801-48.243 6.044-21.71 4.836-24.122 4.836-24.122Z" fill="url(#v)"/><path d="M647.679 152.347c-24.175-6.03-70.107 24.122-108.787 25.328 2.418-6.03 16.923-13.267 26.593-18.091 64.063-30.152 154.719-34.976 137.797 38.594-3.626 16.885-16.923 44.625-27.801 56.686-32.636-3.618-77.36-48.243-95.491-69.953 24.175 1.207 25.383-7.236 43.515-10.854l-8.462 16.885c12.088 3.618 22.966 4.824 38.68 3.618-3.626 19.297-25.383 9.649-9.67 27.74 43.515 4.824 41.098-59.098 3.626-69.953Z" fill="url(#w)"/><path d="M558.232 838.605c-13.296 13.267-37.471 34.976-56.811 43.419-8.461-36.182-39.889-54.274-53.185-88.044-2.417-7.236 4.835-12.061 15.714-18.091 4.835-2.412 6.044-4.824 9.67-8.442l4.835-4.825 4.835-4.824c19.34-20.503 24.175-38.595 27.801-41.007 6.044 7.237 16.923 20.504 20.549 30.152 10.879-4.824 24.175-14.473 29.01-15.679 0 12.061-12.088 42.213-19.34 54.274-2.418 3.618-8.461 12.06-9.67 15.679l1.208-1.206c10.879-7.237 30.219-37.389 35.054-47.037 18.131 15.679-26.592 73.57-37.471 86.837 4.835-2.412 4.835-2.412 8.461-6.03 9.67-8.443 12.088-9.649 21.758-21.71 6.043-7.236 20.548-24.121 21.757-33.77 3.626 2.412 2.418 1.206 4.835 3.618 8.461 10.855-22.966 50.656-29.01 56.686Z" fill="url(#x)"/><path d="M350.328 158.378c2.417 12.061 1.209 21.709 0 27.74-1.209-6.031 1.208-10.855-25.384-42.213-24.175-28.946-54.394-68.746-26.592-102.517 8.461-9.648 35.053-22.915 58.02-24.121-7.253 10.855-21.758 14.473-21.758 38.594 0 27.74 22.966 60.304 30.219 90.456 4.835 21.709 0 27.74-4.835 37.388 0-15.679-3.627-34.976-15.714-47.037-21.757-20.503-26.592-50.655-26.592-50.655s-1.209 2.412 4.835 24.122c6.043 21.709 22.966 26.533 27.801 48.243Z" fill="url(#y)"/><path d="M381.755 105.31v14.473c-6.044-15.679-13.296-41.006-14.505-50.655-6.043-28.946-2.417-51.861 18.131-65.128 36.263 20.503 19.34 74.777 6.044 113.371-3.626-25.327-6.044-55.48-6.044-55.48s-2.417 22.916-3.626 43.419Z" fill="url(#z)"/><path d="M725.039 259.688c9.67 2.412 10.879 1.206 20.549 9.649 8.461 8.442 10.879 10.855 21.757 20.503 21.758 28.946 22.967 80.807 6.044 113.371-1.209 0-16.922-27.739-22.966-34.976-20.549-24.121-51.976-43.419-65.272-50.655 1.208-6.03 2.417-12.061 2.417-18.091 0-7.237-2.417-13.267-2.417-19.297 12.087 3.618 22.966 6.03 35.053 8.442-1.208-2.412-2.417-3.618-3.626-4.824-7.252-6.031-6.044-4.825-10.879-13.267-2.417-3.618-9.67-15.679-10.878-19.297 4.835 1.206 7.252 2.412 12.087 3.618 6.044 2.412 25.384 19.297 30.219 25.328 2.417 3.618 6.043 8.442 8.461 12.06 2.417 3.619 4.835 8.443 7.252 13.267 6.044 14.473 10.879 27.74 12.088 43.419 2.417-19.297-8.461-53.067-22.966-69.953-3.627-3.618-4.835-6.03-8.462-9.648l-8.461-8.443v-1.206Z" fill="url(#A)"/><path d="M704.491 241.597c6.043-10.855 10.878-34.976 12.087-41.007 10.879 14.473 21.758 28.946 39.889 38.595-18.131-14.473-27.802-32.564-38.68-50.655 19.34 9.648 41.097 37.388 50.767 51.861 10.879 18.091 12.088 38.595 12.088 57.892-10.879-30.152-53.185-61.51-76.151-56.686Z" fill="url(#B)"/><path d="M444.61 189.736c-2.417-26.534 33.845-53.068 51.976-66.334 41.098-30.152 43.515-51.862 13.296-80.808 60.438 6.03 124.501 68.747 82.195 96.487-38.68 25.327-106.37 27.739-135.379 59.097 1.208-4.824 3.626-10.854 12.087-18.091 16.922-14.473 53.185-20.503 70.107-34.976 16.923-15.679 12.088-33.77 12.088-33.77s4.835 25.327-36.263 41.006c-36.262 14.473-60.437 24.122-70.107 37.389Z" fill="url(#C)"/><path d="m188.356 199.384-29.01 30.152c-14.505 12.061-27.801 22.916-54.394 30.152-22.966-26.533-50.767-94.074-7.252-112.165 56.811-24.121 108.787 18.091 155.928 34.976-33.845 7.237-106.37-44.624-135.38-21.709-9.67 7.236-21.757 26.534-16.922 42.213 4.835 13.266 24.175 32.564 37.471 15.679-1.209-14.473-12.087-3.619-14.505-20.504 14.505 1.206 25.384 0 37.471-3.618l-8.461-16.885c20.549 3.618 18.131 10.855 44.724 10.855-3.626 7.236-3.627 6.03-9.67 10.854Z" fill="url(#D)"/><path d="M316.483 198.178c-29.01-31.358-96.7-33.77-135.38-59.097-42.306-27.74 21.758-90.456 80.986-96.486-29.01 28.945-26.592 50.655 14.505 80.807 18.131 13.266 54.394 39.8 51.976 66.334-9.67-14.473-33.845-22.916-70.107-37.389-42.306-16.885-36.262-41.006-36.262-41.006s-4.835 19.297 12.087 33.77c16.923 14.473 53.185 20.503 70.107 34.976 8.462 8.443 10.879 14.473 12.088 18.091Z" fill="url(#E)"/><path d="M65.064 201.797c1.208 6.03 6.043 28.945 12.087 41.006C54.185 237.979 11.88 269.337 1 300.695c0-19.297 1.209-41.007 12.087-57.892 9.67-14.473 31.428-42.213 50.768-51.861-10.879 18.091-20.549 37.388-38.68 50.655 18.131-10.855 29.01-25.328 39.889-39.8Z" fill="url(#F)"/><path d="M332.197 534.674h2.417c7.253 0 14.505-2.412 21.758-3.618 16.922 0 19.339 9.648 36.262 8.442 15.714-1.206 15.714-9.649 36.262-8.442 16.923 2.412 19.34 6.03 33.845-1.207 4.835-7.236 1.209-19.297 1.209-19.297 3.626-13.267 14.505 12.061 12.087 15.679-1.208 3.618-21.757 22.916-24.175 25.328-16.922 18.091-43.514 27.74-51.976 56.685-4.835 15.679 0 16.886 18.132 20.504 32.636 6.03 67.689 15.679 74.942-13.267-15.714-3.618-21.758-1.206-37.471-1.206h-7.253l4.835-2.412c9.67-2.412 19.34-3.619 31.428-6.031 4.835-1.206 16.922-6.03 20.548-9.648 2.418-2.413 10.879-9.649 14.505-9.649-20.548 107.341-67.689 25.328-128.127 67.54-41.097-44.624-108.787 48.243-124.501-57.891v-10.855c1.209-1.206 7.253 8.443 9.67 9.649 33.845 16.885 35.054 7.236 56.811 20.503-16.922-1.206-25.383-6.03-42.306 1.206 0 30.152 54.394 15.679 84.612 9.649 29.01-9.649-16.922-50.656-42.306-74.777 0 0-22.966-20.504-25.383-25.328-2.418-4.824 8.461-28.946 12.087-15.679 0 0-4.835 18.091 6.044 22.916h1.209c1.208 1.206 2.417 1.206 4.835 1.206Z" fill="url(#G)"/></g><defs><linearGradient id="a" x1="393" y1="4" x2="393" y2="917" gradientUnits="userSpaceOnUse"><stop stop-color="#3F3F3F"/><stop offset="1" stop-color="#383838" stop-opacity=".28"/></linearGradient><linearGradient id="b" x1="393" y1="4" x2="393" y2="917" gradientUnits="userSpaceOnUse"><stop stop-color="#3F3F3F"/><stop offset="1" stop-color="#383838" stop-opacity=".28"/></linearGradient><linearGradient id="c" x1="393" y1="4" x2="393" y2="917" gradientUnits="userSpaceOnUse"><stop stop-color="#3F3F3F"/><stop offset="1" stop-color="#383838" stop-opacity=".28"/></linearGradient><linearGradient id="d" x1="393" y1="4" x2="393" y2="917" gradientUnits="userSpaceOnUse"><stop stop-color="#3F3F3F"/><stop offset="1" stop-color="#383838" stop-opacity=".28"/></linearGradient><linearGradient id="e" x1="393" y1="4" x2="393" y2="917" gradientUnits="userSpaceOnUse"><stop stop-color="#3F3F3F"/><stop offset="1" stop-color="#383838" stop-opacity=".28"/></linearGradient><linearGradient id="f" x1="393" y1="4" x2="393" y2="917" gradientUnits="userSpaceOnUse"><stop stop-color="#3F3F3F"/><stop offset="1" stop-color="#383838" stop-opacity=".28"/></linearGradient><linearGradient id="g" x1="393" y1="4" x2="393" y2="917" gradientUnits="userSpaceOnUse"><stop stop-color="#3F3F3F"/><stop offset="1" stop-color="#383838" stop-opacity=".28"/></linearGradient><linearGradient id="h" x1="393" y1="4" x2="393" y2="917" gradientUnits="userSpaceOnUse"><stop stop-color="#3F3F3F"/><stop offset="1" stop-color="#383838" stop-opacity=".28"/></linearGradient><linearGradient id="i" x1="393" y1="4" x2="393" y2="917" gradientUnits="userSpaceOnUse"><stop stop-color="#3F3F3F"/><stop offset="1" stop-color="#383838" stop-opacity=".28"/></linearGradient><linearGradient id="j" x1="393" y1="4" x2="393" y2="917" gradientUnits="userSpaceOnUse"><stop stop-color="#3F3F3F"/><stop offset="1" stop-color="#383838" stop-opacity=".28"/></linearGradient><linearGradient id="k" x1="393" y1="4" x2="393" y2="917" gradientUnits="userSpaceOnUse"><stop stop-color="#3F3F3F"/><stop offset="1" stop-color="#383838" stop-opacity=".28"/></linearGradient><linearGradient id="l" x1="393" y1="4" x2="393" y2="917" gradientUnits="userSpaceOnUse"><stop stop-color="#3F3F3F"/><stop offset="1" stop-color="#383838" stop-opacity=".28"/></linearGradient><linearGradient id="m" x1="393" y1="4" x2="393" y2="917" gradientUnits="userSpaceOnUse"><stop stop-color="#3F3F3F"/><stop offset="1" stop-color="#383838" stop-opacity=".28"/></linearGradient><linearGradient id="n" x1="393" y1="4" x2="393" y2="917" gradientUnits="userSpaceOnUse"><stop stop-color="#3F3F3F"/><stop offset="1" stop-color="#383838" stop-opacity=".28"/></linearGradient><linearGradient id="o" x1="393" y1="4" x2="393" y2="917" gradientUnits="userSpaceOnUse"><stop stop-color="#3F3F3F"/><stop offset="1" stop-color="#383838" stop-opacity=".28"/></linearGradient><linearGradient id="p" x1="393" y1="4" x2="393" y2="917" gradientUnits="userSpaceOnUse"><stop stop-color="#3F3F3F"/><stop offset="1" stop-color="#383838" stop-opacity=".28"/></linearGradient><linearGradient id="q" x1="393" y1="4" x2="393" y2="917" gradientUnits="userSpaceOnUse"><stop stop-color="#3F3F3F"/><stop offset="1" stop-color="#383838" stop-opacity=".28"/></linearGradient><linearGradient id="r" x1="393" y1="4" x2="393" y2="917" gradientUnits="userSpaceOnUse"><stop stop-color="#3F3F3F"/><stop offset="1" stop-color="#383838" stop-opacity=".28"/></linearGradient><linearGradient id="s" x1="393" y1="4" x2="393" y2="917" gradientUnits="userSpaceOnUse"><stop stop-color="#3F3F3F"/><stop offset="1" stop-color="#383838" stop-opacity=".28"/></linearGradient><linearGradient id="t" x1="393" y1="4" x2="393" y2="917" gradientUnits="userSpaceOnUse"><stop stop-color="#3F3F3F"/><stop offset="1" stop-color="#383838" stop-opacity=".28"/></linearGradient><linearGradient id="u" x1="393" y1="4" x2="393" y2="917" gradientUnits="userSpaceOnUse"><stop stop-color="#3F3F3F"/><stop offset="1" stop-color="#383838" stop-opacity=".28"/></linearGradient><linearGradient id="v" x1="393" y1="4" x2="393" y2="917" gradientUnits="userSpaceOnUse"><stop stop-color="#3F3F3F"/><stop offset="1" stop-color="#383838" stop-opacity=".28"/></linearGradient><linearGradient id="w" x1="393" y1="4" x2="393" y2="917" gradientUnits="userSpaceOnUse"><stop stop-color="#3F3F3F"/><stop offset="1" stop-color="#383838" stop-opacity=".28"/></linearGradient><linearGradient id="x" x1="393" y1="4" x2="393" y2="917" gradientUnits="userSpaceOnUse"><stop stop-color="#3F3F3F"/><stop offset="1" stop-color="#383838" stop-opacity=".28"/></linearGradient><linearGradient id="y" x1="393" y1="4" x2="393" y2="917" gradientUnits="userSpaceOnUse"><stop stop-color="#3F3F3F"/><stop offset="1" stop-color="#383838" stop-opacity=".28"/></linearGradient><linearGradient id="z" x1="393" y1="4" x2="393" y2="917" gradientUnits="userSpaceOnUse"><stop stop-color="#3F3F3F"/><stop offset="1" stop-color="#383838" stop-opacity=".28"/></linearGradient><linearGradient id="A" x1="393" y1="4" x2="393" y2="917" gradientUnits="userSpaceOnUse"><stop stop-color="#3F3F3F"/><stop offset="1" stop-color="#383838" stop-opacity=".28"/></linearGradient><linearGradient id="B" x1="393" y1="4" x2="393" y2="917" gradientUnits="userSpaceOnUse"><stop stop-color="#3F3F3F"/><stop offset="1" stop-color="#383838" stop-opacity=".28"/></linearGradient><linearGradient id="C" x1="393" y1="4" x2="393" y2="917" gradientUnits="userSpaceOnUse"><stop stop-color="#3F3F3F"/><stop offset="1" stop-color="#383838" stop-opacity=".28"/></linearGradient><linearGradient id="D" x1="393" y1="4" x2="393" y2="917" gradientUnits="userSpaceOnUse"><stop stop-color="#3F3F3F"/><stop offset="1" stop-color="#383838" stop-opacity=".28"/></linearGradient><linearGradient id="E" x1="393" y1="4" x2="393" y2="917" gradientUnits="userSpaceOnUse"><stop stop-color="#3F3F3F"/><stop offset="1" stop-color="#383838" stop-opacity=".28"/></linearGradient><linearGradient id="F" x1="393" y1="4" x2="393" y2="917" gradientUnits="userSpaceOnUse"><stop stop-color="#3F3F3F"/><stop offset="1" stop-color="#383838" stop-opacity=".28"/></linearGradient><linearGradient id="G" x1="393" y1="4" x2="393" y2="917" gradientUnits="userSpaceOnUse"><stop stop-color="#3F3F3F"/><stop offset="1" stop-color="#383838" stop-opacity=".28"/></linearGradient></defs></svg>