<svg width="13" height="13" viewBox="0 0 13 13" fill="none" xmlns="http://www.w3.org/2000/svg">
<path d="M6.54199 3.58379C6.54199 4.42096 6.25876 5.10023 5.69229 5.62158C5.13083 6.13792 4.43903 6.39609 3.61689 6.39609C2.78473 6.39609 2.08792 6.13792 1.52646 5.62158C0.965006 5.10023 0.684277 4.42096 0.684277 3.58379C0.684277 2.74661 0.965006 2.06986 1.52646 1.55352C2.08792 1.03216 2.78223 0.771485 3.60937 0.771485C4.43652 0.771485 5.13083 1.03216 5.69229 1.55352C6.25876 2.06986 6.54199 2.74661 6.54199 3.58379ZM4.54932 3.59883C4.54932 2.90703 4.48164 2.3556 4.34629 1.94453C4.21094 1.52845 3.96279 1.32041 3.60186 1.32041C3.27601 1.32041 3.0404 1.51592 2.89502 1.90693C2.74964 2.29294 2.67695 2.83184 2.67695 3.52363C2.67695 4.24551 2.74212 4.81449 2.87246 5.23057C3.00781 5.64163 3.26097 5.84717 3.63193 5.84717C3.95277 5.84717 4.18587 5.65417 4.33125 5.26816C4.47663 4.87715 4.54932 4.3207 4.54932 3.59883ZM12.8584 9.20088C12.8584 10.0381 12.5752 10.7173 12.0087 11.2387C11.4472 11.755 10.7554 12.0132 9.9333 12.0132C9.10114 12.0132 8.40433 11.755 7.84287 11.2387C7.28141 10.7173 7.00068 10.0381 7.00068 9.20088C7.00068 8.3637 7.28141 7.68695 7.84287 7.17061C8.40433 6.64925 9.09863 6.38857 9.92578 6.38857C10.7529 6.38857 11.4472 6.64925 12.0087 7.17061C12.5752 7.68695 12.8584 8.3637 12.8584 9.20088ZM10.8657 9.21592C10.8657 8.52412 10.798 7.97269 10.6627 7.56162C10.5273 7.14554 10.2792 6.9375 9.91826 6.9375C9.59242 6.9375 9.3568 7.13301 9.21143 7.52402C9.06605 7.91003 8.99336 8.44893 8.99336 9.14072C8.99336 9.8626 9.05853 10.4316 9.18887 10.8477C9.32422 11.2587 9.57738 11.4643 9.94834 11.4643C10.2692 11.4643 10.5023 11.2713 10.6477 10.8853C10.793 10.4942 10.8657 9.93779 10.8657 9.21592ZM11.8357 1.01211L2.94014 11.75H1.71445L10.5875 1.01211H11.8357Z" fill="white"/>
</svg>
