<svg width="20" height="20" viewBox="0 0 20 20" fill="none" xmlns="http://www.w3.org/2000/svg">
<g clip-path="url(#clip0_539_15790)">
<path fill-rule="evenodd" clip-rule="evenodd" d="M3.99935 1.33325C3.64573 1.33325 3.30659 1.47373 3.05654 1.72378C2.80649 1.97382 2.66602 2.31296 2.66602 2.66659V17.3333C2.66602 17.6869 2.80649 18.026 3.05654 18.2761C3.30659 18.5261 3.64573 18.6666 3.99935 18.6666H13.9993C14.1762 18.6666 14.3457 18.5963 14.4708 18.4713C14.5958 18.3463 14.666 18.1767 14.666 17.9999C14.666 17.8231 14.5958 17.6535 14.4708 17.5285C14.3457 17.4035 14.1762 17.3333 13.9993 17.3333H3.99935V2.66659H13.9993C14.1762 2.66659 14.3457 2.59635 14.4708 2.47132C14.5958 2.3463 14.666 2.17673 14.666 1.99992C14.666 1.82311 14.5958 1.65354 14.4708 1.52851C14.3457 1.40349 14.1762 1.33325 13.9993 1.33325H3.99935ZM16.8047 6.52792C16.6795 6.40274 16.5097 6.33241 16.3327 6.33241C16.1556 6.33241 15.9859 6.40274 15.8607 6.52792C15.7355 6.6531 15.6652 6.82288 15.6652 6.99992C15.6652 7.17695 15.7355 7.34674 15.8607 7.47192L17.7233 9.33325H8.66602C8.4892 9.33325 8.31963 9.40349 8.19461 9.52851C8.06959 9.65354 7.99935 9.82311 7.99935 9.99992C7.99935 10.1767 8.06959 10.3463 8.19461 10.4713C8.31963 10.5963 8.4892 10.6666 8.66602 10.6666H17.7233L15.8607 12.5279C15.7355 12.6531 15.6652 12.8229 15.6652 12.9999C15.6652 13.177 15.7355 13.3467 15.8607 13.4719C15.9859 13.5971 16.1556 13.6674 16.3327 13.6674C16.5097 13.6674 16.6795 13.5971 16.8047 13.4719L19.8047 10.4719C19.8668 10.41 19.916 10.3364 19.9496 10.2554C19.9832 10.1744 20.0005 10.0876 20.0005 9.99992C20.0005 9.91223 19.9832 9.8254 19.9496 9.74441C19.916 9.66341 19.8668 9.58985 19.8047 9.52792L16.8047 6.52792Z" />
</g>
<defs>
<clipPath id="clip0_539_15790">
<rect width="20" height="20" fill="white"/>
</clipPath>
</defs>
</svg>
