<svg width="32" height="32" viewBox="0 0 32 32" fill="none" xmlns="http://www.w3.org/2000/svg">
<g clip-path="url(#clip0_539_10340)">
<rect opacity="0.5" x="3" y="3" width="26" height="26" rx="6" fill="#8E898F"/>
<path fill-rule="evenodd" clip-rule="evenodd" d="M16.5 25.6063L17.0481 25.1277C21.6572 21.1031 24 17.589 24 14.5C24 10.1256 20.5858 7 16.5 7C12.4142 7 9 10.1256 9 14.5C9 17.589 11.3428 21.1031 15.9519 25.1277L16.5 25.6063ZM13.5 14.3335C13.5 12.9528 14.6193 11.8335 16 11.8335C17.3807 11.8335 18.5 12.9528 18.5 14.3335C18.5 15.7142 17.3807 16.8335 16 16.8335C14.6193 16.8335 13.5 15.7142 13.5 14.3335Z" fill="white"/>
</g>
<defs>
<clipPath id="clip0_539_10340">
<rect width="32" height="32" fill="white"/>
</clipPath>
</defs>
</svg>
