<svg width="20" height="20" viewBox="0 0 20 20" fill="none" xmlns="http://www.w3.org/2000/svg">
<path d="M9.91992 4.98438C9.42547 4.98437 8.94212 5.131 8.531 5.4057C8.11987 5.6804 7.79944 6.07085 7.61022 6.52767C7.42101 6.98448 7.3715 7.48715 7.46796 7.9721C7.56442 8.45705 7.80252 8.90251 8.15216 9.25214C8.50179 9.60177 8.94724 9.83988 9.4322 9.93634C9.91715 10.0328 10.4198 9.98329 10.8766 9.79407C11.3334 9.60485 11.7239 9.28442 11.9986 8.8733C12.2733 8.46218 12.4199 7.97883 12.4199 7.48437C12.4192 6.82157 12.1555 6.18612 11.6869 5.71744C11.2182 5.24876 10.5827 4.98513 9.91992 4.98438ZM9.91992 8.73437C9.6727 8.73437 9.43102 8.66106 9.22546 8.52371C9.0199 8.38636 8.85968 8.19114 8.76507 7.96273C8.67046 7.73432 8.64571 7.48299 8.69394 7.24051C8.74217 6.99804 8.86122 6.77531 9.03604 6.60049C9.21086 6.42568 9.43358 6.30662 9.67606 6.25839C9.91854 6.21016 10.1699 6.23492 10.3983 6.32953C10.6267 6.42414 10.8219 6.58435 10.9593 6.78991C11.0966 6.99547 11.1699 7.23715 11.1699 7.48437C11.1695 7.81578 11.0377 8.1335 10.8034 8.36784C10.569 8.60217 10.2513 8.73399 9.91992 8.73437Z" />
<path d="M14.7222 2.67627C13.5344 1.48879 11.9489 0.783378 10.2716 0.69618C8.59426 0.608982 6.94411 1.14618 5.63959 2.2041C4.33508 3.26201 3.46867 4.76565 3.2076 6.4248C2.94652 8.08396 3.30929 9.78101 4.22587 11.1884L8.9488 18.4389C9.0539 18.6003 9.19761 18.7328 9.36689 18.8246C9.53618 18.9163 9.72568 18.9644 9.91824 18.9644C10.1108 18.9644 10.3003 18.9163 10.4696 18.8246C10.6389 18.7328 10.7826 18.6003 10.8877 18.4389L15.6108 11.1884C16.4612 9.88284 16.8371 8.32459 16.6753 6.77485C16.5136 5.2251 15.824 3.77807 14.7222 2.67627ZM14.5634 10.5061L9.91826 17.637L5.27306 10.5061C3.85118 8.32335 4.15614 5.40225 5.99818 3.56014C6.51296 3.04534 7.12411 2.63698 7.79672 2.35837C8.46933 2.07976 9.19023 1.93636 9.91826 1.93636C10.6463 1.93636 11.3672 2.07976 12.0398 2.35837C12.7124 2.63698 13.3235 3.04534 13.8383 3.56014C15.6804 5.40225 15.9853 8.32335 14.5634 10.5061Z"/>
</svg>
