<svg width="20" height="20" viewBox="0 0 20 20" fill="none" xmlns="http://www.w3.org/2000/svg">
<path d="M9.91895 4.98425C9.42449 4.98425 8.94114 5.13088 8.53002 5.40558C8.1189 5.68028 7.79847 6.07073 7.60925 6.52754C7.42003 6.98436 7.37052 7.48703 7.46698 7.97198C7.56345 8.45693 7.80155 8.90239 8.15118 9.25202C8.50081 9.60165 8.94627 9.83975 9.43122 9.93622C9.91617 10.0327 10.4188 9.98317 10.8757 9.79395C11.3325 9.60473 11.7229 9.2843 11.9976 8.87318C12.2723 8.46206 12.4189 7.97871 12.4189 7.48425C12.4182 6.82144 12.1546 6.186 11.6859 5.71732C11.2172 5.24864 10.5818 4.98501 9.91895 4.98425V4.98425ZM9.91895 8.73425C9.67172 8.73425 9.43004 8.66094 9.22448 8.52359C9.01892 8.38624 8.85871 8.19101 8.7641 7.96261C8.66949 7.7342 8.64473 7.48287 8.69296 7.24039C8.7412 6.99791 8.86025 6.77519 9.03506 6.60037C9.20988 6.42555 9.43261 6.3065 9.67508 6.25827C9.91756 6.21004 10.1689 6.23479 10.3973 6.3294C10.6257 6.42401 10.8209 6.58423 10.9583 6.78979C11.0956 6.99535 11.1689 7.23703 11.1689 7.48425C11.1686 7.81566 11.0367 8.13338 10.8024 8.36771C10.5681 8.60205 10.2503 8.73387 9.91895 8.73425V8.73425Z" fill="white"/>
<path d="M14.7232 2.6764C13.5354 1.48891 11.9498 0.7835 10.2725 0.696302C8.59524 0.609105 6.94509 1.1463 5.64057 2.20422C4.33605 3.26214 3.46965 4.76577 3.20857 6.42493C2.9475 8.08408 3.31026 9.78113 4.22685 11.1885L8.94978 18.4391C9.05488 18.6004 9.19859 18.7329 9.36787 18.8247C9.53715 18.9165 9.72666 18.9645 9.91921 18.9645C10.1118 18.9645 10.3013 18.9165 10.4706 18.8247C10.6398 18.7329 10.7835 18.6004 10.8886 18.4391L15.6117 11.1885C16.4622 9.88296 16.8381 8.32471 16.6763 6.77497C16.5145 5.22523 15.825 3.77819 14.7232 2.6764V2.6764ZM14.5644 10.5062L9.91923 17.6371L5.27404 10.5062C3.85216 8.32347 4.15712 5.40237 5.99915 3.56026C6.51394 3.04546 7.12509 2.6371 7.79769 2.35849C8.4703 2.07988 9.1912 1.93648 9.91923 1.93648C10.6473 1.93648 11.3682 2.07988 12.0408 2.35849C12.7134 2.6371 13.3245 3.04546 13.8393 3.56026C15.6813 5.40237 15.9863 8.32347 14.5644 10.5062Z" fill="white"/>
</svg>
