<svg width="22" height="21" viewBox="0 0 22 21" fill="none" xmlns="http://www.w3.org/2000/svg">
<path fill-rule="evenodd" clip-rule="evenodd" d="M3.95936 8.46875C3.92743 8.46875 3.92743 8.46875 3.8955 8.46875L0.095791 9.75C0.0319303 9.78125 0 9.84375 0 9.90625V11.125C0 11.2187 0.095791 11.3125 0.223512 11.2812L1.85196 10.8125C1.94775 10.7812 2.07547 10.8437 2.07547 10.9687V17.0625C2.07547 17.1562 2.13933 17.2187 2.23512 17.2187H3.99129C4.08708 17.2187 4.15094 17.1562 4.15094 17.0625V8.625C4.11901 8.53125 4.02322 8.46875 3.95936 8.46875ZM10.09 16.6562C10.6328 16.2187 10.9202 15.5938 10.9202 14.8125C10.9202 14.3125 10.7925 13.9063 10.537 13.5625C10.3454 13.2813 10.09 13.0625 9.80261 12.875C9.70682 12.8125 9.67489 12.6563 9.80261 12.5625C10.0581 12.375 10.2816 12.1875 10.4412 11.9375C10.6647 11.625 10.7605 11.25 10.7605 10.8125C10.7605 10.0625 10.5051 9.4375 9.96226 9C9.41945 8.5625 8.71698 8.34375 7.82293 8.34375C6.92888 8.34375 6.22641 8.5625 5.6836 9C5.14078 9.4375 4.88534 10.0312 4.88534 10.8125C4.88534 11.25 4.98113 11.625 5.20464 11.9375C5.3643 12.1875 5.58781 12.375 5.84325 12.5625C5.93904 12.625 5.93904 12.7813 5.84325 12.875C5.52395 13.0625 5.2685 13.3125 5.07692 13.5938C4.82148 13.9688 4.69376 14.375 4.69376 14.8438C4.69376 15.625 4.98113 16.25 5.52395 16.6875C6.09869 17.1563 6.83309 17.375 7.82293 17.375C8.78084 17.3437 9.54717 17.125 10.09 16.6562ZM7.18433 10.1875C7.34398 10 7.53556 9.90625 7.82293 9.90625C8.1103 9.90625 8.33382 10 8.46154 10.1875C8.62119 10.375 8.68505 10.625 8.68505 10.9375C8.68505 11.25 8.62119 11.5 8.46154 11.6875C8.33382 11.875 8.1103 11.9687 7.82293 11.9687C7.53556 11.9687 7.31205 11.875 7.18433 11.6875C7.02467 11.5 6.96081 11.25 6.96081 10.9375C6.96081 10.5937 7.02467 10.3437 7.18433 10.1875ZM6.76923 14.6563C6.76923 14.2813 6.86502 14.0313 7.0566 13.8125C7.24819 13.625 7.50363 13.5312 7.82293 13.5312C8.14224 13.5312 8.39768 13.625 8.58926 13.8125C8.78084 14 8.87663 14.2813 8.87663 14.6563C8.87663 15 8.78084 15.2812 8.58926 15.5C8.39768 15.6875 8.14224 15.8125 7.85486 15.8125C7.53556 15.8125 7.28012 15.7187 7.08853 15.5C6.86502 15.2812 6.76923 15 6.76923 14.6563ZM14.4006 9.65625H13.5385C13.2511 9.65625 12.9956 9.90625 12.9956 10.1875V11.4062C12.9956 11.6875 12.7402 11.9375 12.4528 11.9375H11.4311C11.1437 11.9375 10.8882 12.1875 10.8882 12.4688V13.1562C10.8882 13.4375 11.1437 13.6875 11.4311 13.6875H12.4528C12.7402 13.6875 12.9956 13.9375 12.9956 14.2188V15.5C12.9956 15.7812 13.2511 16.0312 13.5385 16.0312H14.4006C14.688 16.0312 14.9434 15.7812 14.9434 15.5V14.2188C14.9434 13.9375 15.1988 13.6875 15.4862 13.6875H16.508C16.7954 13.6875 17.0508 13.4375 17.0508 13.1562V12.4688C17.0508 12.1875 16.7954 11.9375 16.508 11.9375H15.4862C15.1988 11.9375 14.9434 11.6875 14.9434 11.4062V10.1875C14.9434 9.90625 14.7199 9.65625 14.4006 9.65625ZM21.1379 6.84375H19.3179C19.3179 6.84375 19.2859 6.84375 19.2859 6.8125V5.4375C19.2859 3.25 17.4659 1.46875 15.2308 1.46875C15.135 1.46875 15.0711 1.46875 14.9753 1.46875C14.9753 1.46875 14.9753 1.46875 14.9434 1.46875C14.3048 0.5625 13.2192 0 12.0377 0C10.3454 0 8.87663 1.1875 8.49347 2.78125C7.50363 3.28125 6.86502 4.3125 6.86502 5.4375V7.625C6.86502 7.8125 7.02467 7.9375 7.21626 7.9375C7.40784 7.90625 7.59942 7.90625 7.82293 7.90625C7.95065 7.90625 8.07837 7.90625 8.2061 7.90625C8.39768 7.90625 8.55733 7.78125 8.55733 7.59375V6.25C8.55733 6.25 8.55733 6.21875 8.58926 6.21875H17.6575C17.6575 6.21875 17.6894 6.21875 17.6894 6.25V7.625V17.2812C17.6894 17.3125 17.6894 17.3437 17.6894 17.375C17.6894 17.375 17.6894 17.375 17.6894 17.4063C17.6894 17.4375 17.6894 17.4375 17.6894 17.4688L18.1045 19.3125C18.1045 19.3125 18.1045 19.3438 18.0726 19.3438H8.07837C8.07837 19.3438 8.04644 19.3437 8.04644 19.3125L8.33382 18.125C8.36575 17.9375 8.23803 17.75 8.01451 17.75C7.95065 17.75 7.88679 17.75 7.82293 17.75C7.53556 17.75 7.28012 17.7187 7.02467 17.6875C6.86502 17.6562 6.70537 17.7813 6.67344 17.9375L6.19448 19.9375C6.16255 20.0937 6.16255 20.2813 6.22642 20.4375C6.35414 20.75 6.67344 20.9687 6.99274 20.9687H19.0943C19.2221 20.9687 19.3498 20.9375 19.4775 20.875C19.8287 20.6875 20.0203 20.3125 19.9245 19.9688L19.5094 18.125C19.5094 18.125 19.5094 18.0938 19.5414 18.0938H21.1379C21.6168 18.0938 22 17.7188 22 17.25V7.65625C22 7.21875 21.6168 6.84375 21.1379 6.84375ZM17.4659 4.625H8.8447C8.81277 4.625 8.81277 4.59375 8.81277 4.59375C8.97242 4.375 9.22787 4.21875 9.48331 4.125C9.80261 4.03125 10.0581 3.71875 10.09 3.375C10.1858 2.375 11.0479 1.625 12.0377 1.625C12.8041 1.625 13.4746 2.03125 13.7939 2.6875C13.9536 3.03125 14.3367 3.21875 14.7199 3.15625C14.9115 3.125 15.0711 3.09375 15.2308 3.09375C16.2845 3.09375 17.1466 3.71875 17.4659 4.625C17.4659 4.625 17.4978 4.625 17.4659 4.625ZM20.3396 16.4688C20.3396 16.5 20.3396 16.5 20.3396 16.4688L19.3179 16.5C19.3179 16.5 19.2859 16.5 19.2859 16.4688V8.46875C19.2859 8.46875 19.2859 8.4375 19.3179 8.4375H20.3077C20.3077 8.4375 20.3396 8.4375 20.3396 8.46875V16.4688Z"/>
</svg>
