<svg width="32" height="32" viewBox="0 0 32 32" fill="none" xmlns="http://www.w3.org/2000/svg">
<g clip-path="url(#clip0_539_10319)">
<rect opacity="0.5" x="3" y="3" width="26" height="26" rx="6" fill="#8E898F"/>
<path fill-rule="evenodd" clip-rule="evenodd" d="M17.518 6.89697C21.481 7.37734 24.6234 10.5197 25.1038 14.4828L23.293 14.7846C22.9433 11.5924 20.4084 9.05743 17.2162 8.70779L17.518 6.89697ZM16.9141 10.5202C19.3355 10.7368 21.264 12.6652 21.4806 15.0866L19.6639 15.3894C19.5868 13.7386 18.2621 12.4139 16.6113 12.3368L16.9141 10.5202Z" fill="white"/>
<path fill-rule="evenodd" clip-rule="evenodd" d="M19.5565 19.7243L18.854 20.4272C17.6598 21.622 15.6262 20.6036 13.6943 18.6698C11.7611 16.7347 10.7437 14.7018 11.9383 13.5073C12.1279 13.3177 12.362 13.0835 12.6405 12.8048C12.7528 12.6923 12.8042 12.6402 12.8659 12.5753C12.95 12.487 13.0191 12.4094 13.0744 12.3408C12.0061 10.8527 11.2799 9.92288 10.8885 9.53616C10.6863 9.33644 10.2336 9.37322 10.0674 9.53698C9.62412 9.97373 9.47842 10.1194 9.01856 10.5864C7.36461 12.2413 8.63077 16.6326 12.1801 20.1854C15.7283 23.7371 20.1189 25.0038 21.7855 23.3366C22.2049 22.932 22.5467 22.5901 22.8098 22.312C22.9999 22.1111 23.0339 21.6965 22.8152 21.4693C22.451 21.0908 21.5593 20.3956 20.0196 19.2899C19.9073 19.3802 19.7694 19.5112 19.5565 19.7243Z" fill="white" stroke="white" stroke-width="2"/>
</g>
<defs>
<clipPath id="clip0_539_10319">
<rect width="32" height="32" fill="white"/>
</clipPath>
</defs>
</svg>
