<svg width="18" height="18" viewBox="0 0 18 18" fill="none" xmlns="http://www.w3.org/2000/svg">
<path fill-rule="evenodd" clip-rule="evenodd" d="M6.13436 16.1337C5.99751 16.2709 5.83061 16.3745 5.64686 16.4362L1.89686 17.6862C1.67654 17.7599 1.44003 17.7708 1.21386 17.7176C0.987688 17.6645 0.780819 17.5493 0.616466 17.3851C0.452113 17.2208 0.336783 17.0141 0.283418 16.7879C0.230054 16.5618 0.240768 16.3253 0.314358 16.1049L1.56436 12.3549C1.62586 12.1707 1.72943 12.0034 1.86686 11.8662L11.6081 2.12491C12.0769 1.65623 12.7127 1.39294 13.3756 1.39294C14.0385 1.39294 14.6743 1.65623 15.1431 2.12491L15.8756 2.85741C16.3443 3.32623 16.6076 3.962 16.6076 4.62491C16.6076 5.28782 16.3443 5.92359 15.8756 6.39241L6.13436 16.1337ZM2.75061 12.7499L12.4919 3.00866C12.7263 2.77432 13.0442 2.64268 13.3756 2.64268C13.7071 2.64268 14.0249 2.77432 14.2594 3.00866L14.9919 3.74116C15.2262 3.97557 15.3578 4.29346 15.3578 4.62491C15.3578 4.95637 15.2262 5.27425 14.9919 5.50866L5.25061 15.2499L1.50061 16.4999L2.75061 12.7499Z" fill="white"/>
<path fill-rule="evenodd" clip-rule="evenodd" d="M11.3183 2.19992C11.2602 2.14172 11.1913 2.09554 11.1153 2.06403C11.0394 2.03252 10.958 2.0163 10.8758 2.0163C10.7936 2.0163 10.7122 2.03252 10.6362 2.06403C10.5603 2.09554 10.4913 2.14172 10.4333 2.19992L6.31829 6.31867C6.20093 6.43603 6.04176 6.50196 5.87579 6.50196C5.70982 6.50196 5.55065 6.43603 5.43329 6.31867C5.31593 6.20131 5.25 6.04214 5.25 5.87617C5.25 5.7102 5.31593 5.55103 5.43329 5.43367L9.55079 1.31742C9.72491 1.14318 9.93167 1.00497 10.1592 0.910663C10.3868 0.81636 10.6307 0.767822 10.877 0.767822C11.1234 0.767822 11.3673 0.81636 11.5948 0.910663C11.8224 1.00497 12.0292 1.14318 12.2033 1.31742L12.5695 1.68242C12.6869 1.79961 12.7529 1.95863 12.753 2.12448C12.7531 2.29033 12.6874 2.44944 12.5702 2.5668C12.453 2.68416 12.294 2.75015 12.1281 2.75027C11.9623 2.75039 11.8031 2.68461 11.6858 2.56742L11.3195 2.20117L11.3183 2.19992Z" fill="white"/>
<path d="M15.6163 0.508714C15.8507 0.274375 16.1685 0.142731 16.5 0.142731C16.8315 0.142731 17.1493 0.274375 17.3838 0.508714L17.4213 0.546214C17.6491 0.774005 17.7802 1.08096 17.7871 1.40306C17.7941 1.72515 17.6765 2.03751 17.4588 2.27496L15.875 3.99996L14 2.12496L15.6163 0.508714Z" fill="white"/>
</svg>
