<svg width="20" height="20" viewBox="0 0 20 20" fill="none" xmlns="http://www.w3.org/2000/svg">
<path d="M15.4054 19.6889C15.2186 19.6884 15.0324 19.6679 14.8499 19.6278C11.3758 18.9091 8.17522 17.2241 5.61655 14.7667C3.11247 12.3038 1.37577 9.1681 0.616547 5.73889C0.527026 5.3115 0.548998 4.86827 0.68035 4.45184C0.811701 4.03541 1.04801 3.65978 1.36655 3.36111L3.58877 1.22222C3.70227 1.11488 3.83714 1.03268 3.98456 0.980988C4.13198 0.929295 4.28864 0.90927 4.44432 0.92222C4.60575 0.939061 4.76153 0.991061 4.9007 1.07456C5.03987 1.15807 5.15906 1.27105 5.24988 1.40555L8.02766 5.51111C8.13183 5.67041 8.18211 5.85894 8.17111 6.04896C8.16011 6.23898 8.0884 6.42045 7.96655 6.56666L6.5721 8.23333C7.12746 9.46247 7.91396 10.5734 8.88877 11.5056C9.85727 12.4716 11.002 13.2429 12.261 13.7778L13.9888 12.4056C14.1339 12.2909 14.3105 12.2231 14.495 12.2112C14.6796 12.1992 14.8635 12.2438 15.0221 12.3389L19.2165 15.05C19.3605 15.1359 19.4831 15.2533 19.5752 15.3934C19.6674 15.5335 19.7266 15.6926 19.7485 15.8588C19.7704 16.025 19.7544 16.194 19.7018 16.3531C19.6491 16.5123 19.5611 16.6575 19.4443 16.7778L17.2777 18.9222C17.0315 19.1671 16.7394 19.3609 16.4181 19.4925C16.0968 19.6241 15.7526 19.6908 15.4054 19.6889V19.6889ZM4.35544 2.02222L2.13321 4.16111C1.95402 4.32808 1.82137 4.53882 1.74832 4.7726C1.67526 5.00638 1.66431 5.25515 1.71655 5.49444C2.4225 8.7123 4.04528 11.6568 6.38877 13.9722C8.79666 16.2842 11.8086 17.8691 15.0777 18.5444C15.3251 18.5962 15.5815 18.5857 15.8239 18.5139C16.0663 18.4422 16.2871 18.3114 16.4665 18.1333L18.6332 15.9889L14.5832 13.3722L12.7277 14.85C12.6566 14.9062 12.5729 14.9442 12.4838 14.9607C12.3947 14.9771 12.303 14.9716 12.2165 14.9444C10.6758 14.3768 9.27958 13.4757 8.12766 12.3056C6.93619 11.1929 6.01134 9.82556 5.4221 8.30555C5.39718 8.21353 5.39635 8.11665 5.4197 8.02422C5.44305 7.93178 5.48979 7.84692 5.55544 7.77778L7.05544 5.98333L4.35544 2.02222Z" fill="white"/>
</svg>
